<mxfile host="app.diagrams.net" modified="2023-08-24T22:28:20.419Z" agent="Mozilla/5.0 (Windows NT 10.0; Win64; x64) AppleWebKit/537.36 (KHTML, like Gecko) Chrome/116.0.0.0 Safari/537.36" version="21.6.9" etag="FGj7UeFeiDV0e3Z7gVHv" type="github">
  <diagram name="Page-1" id="27MWLUKif-VXzXZm6H4n">
    <mxGraphModel>
      <root>
        <mxCell id="0" />
        <mxCell id="1" parent="0" />
      </root>
    </mxGraphModel>
  </diagram>
</mxfile>
